<svg width="64" height="44" viewBox="0 0 64 44" fill="none" xmlns="http://www.w3.org/2000/svg">
<path fill-rule="evenodd" clip-rule="evenodd" d="M52.8805 0C54.4217 0 55.8257 0.8854 56.4899 2.27608L62.2414 14.3183C61.5302 14.1111 60.778 14 59.9999 14H47.5417C44.0759 14 41.0042 16.2317 39.9332 19.5279L38.4983 23.9443H25.5015L24.0665 19.5279C22.9955 16.2317 19.9239 14 16.458 14H3.99987C3.22174 14 2.46955 14.1111 1.7583 14.3183L7.5098 2.27609C8.17401 0.885403 9.57809 0 11.1193 0H52.8805ZM3.99987 22H16.458L17.893 26.4164C18.964 29.7126 22.0357 31.9443 25.5015 31.9443H38.4983C41.9641 31.9443 45.0357 29.7126 46.1067 26.4164L47.5417 22H59.9999V40H3.99987V22Z" fill="#C5CEE0"/>
<path fill-rule="evenodd" clip-rule="evenodd" d="M20.2624 20.7639C19.7269 19.1158 18.1911 18 16.4582 18H4C1.79086 18 0 19.7909 0 22V40C0 42.2091 1.79086 44 4 44H60C62.2091 44 64 42.2091 64 40V22C64 19.7909 62.2091 18 60 18H47.5418C45.8089 18 44.2731 19.1158 43.7376 20.7639L42.3026 25.1803C41.7671 26.8284 40.2313 27.9443 38.4984 27.9443H25.5016C23.7687 27.9443 22.2329 26.8284 21.6974 25.1803L20.2624 20.7639Z" fill="#C5CEE0"/>
</svg>
