<svg width="20" height="20" viewBox="0 0 20 20" fill="none" xmlns="http://www.w3.org/2000/svg">
<g opacity="0.7">
<path d="M10.0217 1.66663C5.94416 1.6661 2.46823 4.62328 1.81539 8.64823C1.16254 12.6732 3.52555 16.5774 7.39422 17.8658C7.81089 17.9408 7.96005 17.685 7.96005 17.465C7.96005 17.2675 7.95339 16.7441 7.95089 16.0483C5.63839 16.5483 5.15005 14.9333 5.15005 14.9333C4.99782 14.4308 4.67053 13.9994 4.22755 13.7175C3.47755 13.2016 4.28505 13.2133 4.28505 13.2133C4.81895 13.2865 5.28885 13.6028 5.55755 14.07C5.785 14.4835 6.16819 14.7891 6.62197 14.9188C7.07576 15.0485 7.56257 14.9916 7.97422 14.7608C8.0129 14.3391 8.2005 13.945 8.50339 13.6491C6.65839 13.44 4.71839 12.7266 4.71839 9.54079C4.70815 8.71679 5.01414 7.92021 5.57339 7.31496C5.32035 6.59772 5.35015 5.811 5.65672 5.11496C5.65672 5.11496 6.35422 4.89079 7.94172 5.96579C9.30326 5.59247 10.7402 5.59247 12.1017 5.96579C13.6901 4.88996 14.3867 5.11496 14.3867 5.11496C14.6947 5.81068 14.7245 6.59794 14.4701 7.31496C15.0314 7.92015 15.3371 8.71882 15.3234 9.54413C15.3234 12.7383 13.3817 13.44 11.5301 13.6458C11.9295 14.0542 12.1343 14.6144 12.0926 15.1841C12.0926 16.2958 12.0826 17.1925 12.0826 17.465C12.0826 17.6875 12.2309 17.9458 12.6551 17.8641C16.5221 16.5736 18.8826 12.6691 18.2284 8.64522C17.5742 4.62134 14.0984 1.66569 10.0217 1.66663Z" fill="white"/>
</g>
</svg>
