<svg width="130" height="22" viewBox="0 0 130 22" fill="none" xmlns="http://www.w3.org/2000/svg">
<path fill-rule="evenodd" clip-rule="evenodd" d="M1.25582 0.19565C-0.337561 0.932408 -0.372249 3.33675 1.19874 4.12488C3.46433 5.26119 5.55913 2.28386 3.69748 0.57325C3.07971 0.00509461 2.02112 -0.158239 1.25582 0.19565ZM55.4532 10.4387V18.5799H57.7846H60.1165L60.1402 14.3697L60.1639 10.1599L60.909 11.0538C62.1977 12.5998 65.4047 16.4781 66.2784 17.5459L67.1161 18.5702L69.0599 18.5751L71.0037 18.5799V10.4387V2.29791H68.7174H66.4316L66.4079 6.53668L66.3842 10.7759L62.8739 6.53668L59.3639 2.29791H57.4083H55.4532V10.4387ZM72.7415 4.17318V6.048H75.2113H77.681V12.314V18.5799H80.0138H82.3461V12.314V6.048H84.8616H87.377V4.17318V2.29791H80.0595H72.7415V4.17318ZM88.9322 10.4387V18.5799H91.3106H93.6886V16.4276V14.2753L94.8938 14.3007L96.0991 14.3266L97.4984 16.3771C98.2677 17.5055 98.932 18.4631 98.9746 18.5057C99.0171 18.5483 100.171 18.572 101.537 18.5584L104.023 18.5342L102.294 16.0241L100.566 13.5135L101.238 13.0727C104.661 10.8251 104.469 5.33144 100.897 3.31568C99.2854 2.40636 98.467 2.29791 93.2192 2.29791H88.9322V10.4387ZM96.939 6.05634C98.2905 6.30617 98.9548 7.07718 98.9425 8.38078C98.9263 10.0879 98.063 10.6218 95.3189 10.6218H93.6886V8.28945V5.95667H95.044C95.7896 5.95667 96.6422 6.00146 96.939 6.05634ZM17.9334 8.15026C15.4716 8.89317 15.8856 12.4395 18.4353 12.4492C19.9689 12.4549 20.9397 11.1091 20.5204 9.55836C20.2521 8.56782 18.9314 7.84862 17.9334 8.15026ZM1.23079 16.4816C-0.0609501 17.1371 -0.374883 18.8741 0.605997 19.9401C1.39061 20.7933 2.86457 20.8271 3.82701 20.0148C4.96376 19.055 7.47479 18.9834 8.52329 19.8813C9.9485 21.1015 11.8176 20.7673 12.3704 19.1937C13.0988 17.1209 10.9527 15.5104 9.03832 16.6937C6.92069 18.0025 5.51215 18.0056 3.54249 16.7051C2.83647 16.2392 1.88983 16.1475 1.23079 16.4816Z" fill="#3CE424"/>
<path fill-rule="evenodd" clip-rule="evenodd" d="M9.47779 0.121483C9.00315 0.274279 8.49076 0.824871 8.2181 1.47469C7.72502 2.64832 7.56389 2.9908 7.29298 3.44128C7.14194 3.69287 6.98739 3.91241 6.94963 3.92909C6.91187 3.94577 6.88113 3.99978 6.88113 4.04895C6.88113 4.35806 4.56988 6.69961 4.10446 6.86207C4.04695 6.88226 3.97933 6.92573 3.95386 6.95866C3.83751 7.11102 2.27662 7.95798 2.00483 8.01638C1.1829 8.19333 0.313102 8.88969 0.123424 9.52195C-0.738029 12.3974 3.153 13.7871 4.26911 11.0025C4.73014 9.853 5.15691 8.97531 5.25526 8.97531C5.29434 8.97531 5.32595 8.92174 5.32595 8.85632C5.32595 8.73513 6.03241 7.70727 6.34415 7.37446C6.43855 7.27391 6.64667 7.03726 6.80693 6.84846C6.96675 6.6601 7.15204 6.50554 7.2179 6.50554C7.2842 6.50554 7.33864 6.46822 7.33864 6.42212C7.33864 6.13716 9.86636 4.61272 10.6049 4.45246C11.0448 4.35718 11.7895 3.97475 11.8518 3.81273C11.8817 3.73414 11.9642 3.67004 12.0354 3.67004C12.1061 3.67004 12.2136 3.61032 12.2738 3.53788C12.6606 3.07159 14.5921 2.7941 15.4417 3.08256C15.6761 3.16204 15.9369 3.24063 16.0221 3.25687C16.1648 3.28453 17.0214 3.818 17.1259 3.94446C17.7226 4.66497 19.4692 4.41909 20.2143 3.50978L20.5564 3.09222V2.16886C20.5564 1.38161 20.5292 1.21257 20.3733 1.02114C19.7186 0.216762 19.1685 -0.0405327 18.2491 0.0279621C17.6919 0.0696736 17.5382 0.133778 16.7483 0.655831C15.2656 1.63539 13.5076 1.60729 11.9467 0.578115C11.0931 0.0152284 10.276 -0.135812 9.47779 0.121483ZM49.7496 2.11749C48.5909 2.46479 47.9402 3.94797 48.4834 5.00481C49.4458 6.87612 52.6598 6.53804 53.0786 4.52139C53.4339 2.80859 51.6771 1.53967 49.7496 2.11749ZM42.2811 10.9419V18.5799H44.2933H46.306V10.9419V3.30385H44.2933H42.2811V10.9419ZM32.8139 3.9809C24.573 5.55716 24.4246 16.9014 32.6202 18.7332C35.3126 19.3347 38.4282 18.5316 40.2029 16.778C40.8664 16.1229 40.9142 16.2366 39.4091 14.8808L38.138 13.7361L37.5646 14.2727C35.1304 16.5492 31.3807 15.362 30.8385 12.1423C30.1474 8.03789 34.6496 5.71215 37.7222 8.58629L38.1626 8.99814L39.3665 7.91056C40.902 6.52354 40.8563 6.6017 40.404 6.13497C38.653 4.32776 35.5717 3.45358 32.8139 3.9809ZM109.443 7.42144C103.717 8.92174 103.607 16.7679 109.288 18.4829C111.713 19.2148 114.906 18.6348 116.229 17.2219L116.497 16.9365L115.551 15.9517C115.03 15.4099 114.555 14.9115 114.494 14.8443C114.404 14.7438 114.31 14.7785 113.967 15.0402C112.765 15.9583 110.729 15.9534 109.757 15.0305C109.532 14.8171 109.148 14.2024 109.148 14.0558C109.148 14.0286 110.955 14.0062 113.164 14.0062H117.18L117.244 13.5394C117.807 9.4495 113.774 6.28689 109.443 7.42144ZM122.752 7.42539C116.73 8.9055 116.78 17.1499 122.819 18.5843C125.525 19.2267 128.304 18.41 129.489 16.6234C130.145 15.6355 130.222 15.7633 128.427 14.8645C127.562 14.4316 126.84 14.1203 126.822 14.173C126.521 15.0779 125.311 15.7225 124.233 15.5521C121.991 15.1978 121.575 11.6049 123.662 10.624C124.795 10.091 126.454 10.7224 126.822 11.8271C126.84 11.8797 127.562 11.5684 128.427 11.1355L130 10.3483L129.892 10.0963C128.927 7.84646 125.799 6.67634 122.752 7.42539ZM48.684 13.0003V18.5799H50.6967H52.709V13.0003V7.42013H50.6967H48.684V13.0003ZM9.80753 8.14591C8.1619 8.64688 7.58364 10.7619 8.78757 11.8776C9.01238 12.0857 10.2813 12.7258 10.4696 12.7258C10.5412 12.7258 11.1322 13.0481 11.8957 13.5034C12.676 13.9684 13.8838 15.0599 14.5271 15.8814C14.7238 16.133 14.9157 16.3525 14.9534 16.3692C14.9912 16.3859 15.0223 16.4346 15.0223 16.4772C15.0223 16.5198 15.1791 16.7942 15.3705 17.0871C15.7126 17.6096 16.2113 18.5751 16.2113 18.7147C16.2113 20.042 18.4923 21.1388 19.5895 20.3393C19.7186 20.2453 19.8965 20.1417 19.9847 20.1088C20.0725 20.0758 20.1445 19.999 20.1445 19.938C20.1445 19.8765 20.2297 19.736 20.3338 19.6254C21.1144 18.7942 20.3987 16.7754 19.1698 16.3411C18.6038 16.1414 16.8515 15.2637 16.8515 15.1798C16.8515 15.1447 16.7712 15.0907 16.6724 15.0595C16.495 15.0028 16.3453 14.8865 15.4465 14.1054C15.0772 13.7844 14.1969 12.8018 13.7596 12.2227C13.3398 11.6668 12.3695 9.68704 12.3695 9.38715C12.3695 8.70045 10.6782 7.88115 9.80753 8.14591ZM111.987 10.1639C112.613 10.3382 113.192 10.9169 113.427 11.6053L113.529 11.9026H111.286H109.044L109.105 11.6967C109.468 10.4804 110.723 9.81305 111.987 10.1639Z" fill="#040404"/>
<path fill-rule="evenodd" clip-rule="evenodd" d="M16.2364 10.256C16.2364 10.4821 16.254 10.5748 16.2759 10.4615C16.2979 10.3486 16.2979 10.1633 16.2759 10.0501C16.254 9.93678 16.2364 10.0294 16.2364 10.256ZM2.01015 16.266C2.12343 16.2879 2.30872 16.2879 2.422 16.266C2.53527 16.2445 2.44263 16.2264 2.21607 16.2264C1.98951 16.2264 1.89687 16.2445 2.01015 16.266ZM10.107 16.2673C10.2458 16.2884 10.4517 16.2875 10.5641 16.266C10.6769 16.2445 10.5628 16.2269 10.3116 16.2278C10.06 16.2282 9.96783 16.2462 10.107 16.2673Z" fill="#20E818"/>
<path fill-rule="evenodd" clip-rule="evenodd" d="M16.2364 10.256C16.2364 10.4821 16.254 10.5748 16.2759 10.4615C16.2979 10.3486 16.2979 10.1633 16.2759 10.0501C16.254 9.93678 16.2364 10.0294 16.2364 10.256ZM2.01015 16.266C2.12343 16.2879 2.30872 16.2879 2.422 16.266C2.53527 16.2445 2.44263 16.2264 2.21607 16.2264C1.98951 16.2264 1.89687 16.2445 2.01015 16.266ZM10.107 16.2673C10.2458 16.2884 10.4517 16.2875 10.5641 16.266C10.6769 16.2445 10.5628 16.2269 10.3116 16.2278C10.06 16.2282 9.96783 16.2462 10.107 16.2673Z" fill="#20E818"/>
<path fill-rule="evenodd" clip-rule="evenodd" d="M16.2364 10.256C16.2364 10.4821 16.254 10.5748 16.2759 10.4615C16.2979 10.3486 16.2979 10.1633 16.2759 10.0501C16.254 9.93678 16.2364 10.0294 16.2364 10.256ZM2.01015 16.266C2.12343 16.2879 2.30872 16.2879 2.422 16.266C2.53527 16.2445 2.44263 16.2264 2.21607 16.2264C1.98951 16.2264 1.89687 16.2445 2.01015 16.266ZM10.107 16.2673C10.2458 16.2884 10.4517 16.2875 10.5641 16.266C10.6769 16.2445 10.5628 16.2269 10.3116 16.2278C10.06 16.2282 9.96783 16.2462 10.107 16.2673Z" fill="#20E818"/>
</svg>
