<svg width="440" height="328" viewBox="0 0 440 328" fill="none" xmlns="http://www.w3.org/2000/svg">
<g clip-path="url(#clip0)">
<rect width="450" height="366.994" transform="translate(-10 -39)" fill="white" fill-opacity="0.12"/>
<ellipse cx="211.629" cy="249.624" rx="144.944" ry="23.5955" fill="#C5CEE0"/>
<ellipse cx="379.115" cy="206.435" rx="44.0309" ry="9.48035" fill="#C5CEE0"/>
<path fill-rule="evenodd" clip-rule="evenodd" d="M357.016 101.393C353.836 100.421 352.045 97.0553 353.017 93.8751L359.027 74.2011C359.998 71.021 363.364 69.2301 366.545 70.2019C369.725 71.1734 371.516 74.5396 370.544 77.7197L364.534 97.3931C363.563 100.574 360.197 102.365 357.016 101.393Z" fill="#E4EBF7"/>
<path fill-rule="evenodd" clip-rule="evenodd" d="M387.561 174.117C387.561 174.117 388.328 184.963 388.936 193.41C389.267 198.022 389.344 201.625 389.86 201.911C391.324 202.721 393.012 202.028 394.791 203.688C396.57 205.348 397.854 206.625 402.521 205.49C407.98 204.163 403.088 202.805 400.481 200.539C395.878 196.538 396.203 194.066 396.098 191.024C395.784 181.947 396.073 171.551 396.073 171.551L387.561 174.117Z" fill="#FFC999"/>
<path fill-rule="evenodd" clip-rule="evenodd" d="M389.212 197.675C389.212 197.675 390.05 198.301 392.78 200.388C394.933 202.034 396.331 203.028 397.468 202.5C399.545 201.536 401.15 201.034 401.15 201.034C401.15 201.034 403.13 201.98 404.629 203.064C406.127 204.148 405.999 205.999 402.774 206.597C399.549 207.196 397.681 207.057 394.545 204.792C391.409 202.527 390.1 203.537 389.587 202.204C388.785 200.123 389.212 197.675 389.212 197.675Z" fill="#253368"/>
<path fill-rule="evenodd" clip-rule="evenodd" d="M373.806 173.443C373.806 173.443 373.472 184.605 373.157 193.068C372.985 197.689 372.974 200.996 372.467 201.3C371.033 202.16 369.322 201.526 367.602 203.246C365.881 204.967 364.642 206.287 359.938 205.314C354.438 204.176 359.279 202.65 361.806 200.296C366.269 196.138 365.858 193.678 365.858 190.636C365.858 181.553 365.209 171.172 365.209 171.172L373.806 173.443Z" fill="#FFC999"/>
<path fill-rule="evenodd" clip-rule="evenodd" d="M393.093 111.527L363.554 110.093L363.409 190.961L374.158 190.674L379.158 135.611L387.212 191.028L398.829 191.393L393.093 111.527Z" fill="#253368"/>
<path fill-rule="evenodd" clip-rule="evenodd" d="M370.237 117.701C367.156 76.8285 375.387 66.3953 375.387 66.3953H389.741L389.133 117.486C389.133 117.486 379.402 121.379 370.237 117.701Z" fill="#597EF7"/>
<path d="M376.577 69.8486C376.618 69.7668 376.717 69.7337 376.799 69.7746C377.106 69.9281 377.42 70.0652 377.738 70.1865C380.209 71.126 382.853 71.0877 385.346 70.4578C385.733 70.3599 386.082 70.2553 386.386 70.1508L386.535 70.0981C386.559 70.0897 386.581 70.0814 386.602 70.0733L386.758 70.0131C386.842 69.9777 386.939 70.0177 386.975 70.1021C387.01 70.1865 386.97 70.2836 386.886 70.3187L386.811 70.3486L386.783 70.3596C386.7 70.3913 386.604 70.4264 386.494 70.4641C386.181 70.5716 385.823 70.679 385.427 70.779C382.874 71.4244 380.164 71.4633 377.621 70.4961C377.291 70.3711 376.968 70.2294 376.651 70.071C376.569 70.0301 376.536 69.9304 376.577 69.8486Z" fill="#597EF7"/>
<path fill-rule="evenodd" clip-rule="evenodd" d="M388.509 51.9354C388.509 51.9354 389.528 42.9968 378.318 43.6561C372.075 44.4459 372.43 54.8399 372.43 54.8399C372.43 54.8399 372.038 57.0318 372.904 59.262C373.873 61.7601 376.277 62.5542 379.428 62.7736C385.267 62.449 387.557 59.1888 387.557 59.1888C387.557 59.1888 391.587 59.4083 391.147 54.3531C390.708 49.6641 388.509 51.9354 388.509 51.9354Z" fill="#F4B784"/>
<path fill-rule="evenodd" clip-rule="evenodd" d="M387.453 45.8038C387.453 48.1005 389.315 49.962 391.611 49.962C393.908 49.962 395.77 48.1005 395.77 45.8038C395.77 43.5071 393.908 41.6453 391.611 41.6453C389.315 41.6453 387.453 43.5071 387.453 45.8038Z" fill="#253368"/>
<path fill-rule="evenodd" clip-rule="evenodd" d="M372.485 55.163C372.485 55.163 371.119 52.7955 370.299 49.9719C369.479 47.1487 374.852 41.5022 375.581 41.0468C376.31 40.5915 376.674 40.1361 381.683 41.9576C396.553 42.5526 393.026 56.1769 393.026 56.1769C393.026 56.1769 394.757 57.4298 393.756 60.7995C392.571 64.1688 387.916 64.2863 387.916 64.2863L387.755 59.0154C387.755 59.0154 389.327 59.1335 390.512 57.3123C391.696 55.4908 390.673 53.277 389.944 53.0953C389.295 52.6082 387.673 52.8519 387.673 54.7984C387.673 55.7783 385.808 53.5818 385.078 49.8515C379.887 48.8495 378.587 45.2359 378.587 45.2359C378.587 45.2359 378.405 48.6971 379.224 50.154C376.492 49.3342 375.035 47.8774 375.49 46.329C372.394 47.6951 372.485 55.163 372.485 55.163Z" fill="#253368"/>
<path fill-rule="evenodd" clip-rule="evenodd" d="M387.916 64.9353L387.785 57.0756L377.538 57.312C377.538 57.312 377.576 62.6783 377.374 64.8555C372.102 69.0039 386.578 70.5311 388.646 66.6381C389.43 65.1625 387.916 64.9353 387.916 64.9353Z" fill="#F4B784"/>
<path fill-rule="evenodd" clip-rule="evenodd" d="M378.354 53.474C378.546 55.4657 380.1 56.9459 381.825 56.7794C383.55 56.6135 384.793 54.8638 384.601 52.8718C384.409 50.8801 382.855 49.3999 381.13 49.5661C379.405 49.7326 378.162 51.4817 378.354 53.474Z" fill="white"/>
<path d="M381.11 49.3513C379.258 49.5299 377.937 51.3902 378.139 53.4948C378.342 55.5989 379.995 57.1732 381.846 56.9946C383.697 56.8166 385.019 54.9557 384.816 52.8511C384.617 50.7785 383.01 49.2199 381.193 49.3444L381.11 49.3513ZM384.386 52.8926C384.567 54.7722 383.403 56.4108 381.805 56.5646C380.206 56.7187 378.75 55.3327 378.569 53.4534C378.388 51.5737 379.552 49.9354 381.151 49.7813C382.75 49.6272 384.205 51.0132 384.386 52.8926Z" fill="#253368"/>
<path fill-rule="evenodd" clip-rule="evenodd" d="M371.379 53.2062C371.571 55.1985 373.036 56.6867 374.651 56.5312C376.266 56.3756 377.42 54.6345 377.228 52.6425C377.036 50.6508 375.571 49.162 373.956 49.3178C372.341 49.4731 371.187 51.2142 371.379 53.2062Z" fill="white"/>
<path d="M373.935 49.1031C372.191 49.2708 370.962 51.1248 371.164 53.2271C371.367 55.3291 372.927 56.9144 374.671 56.7465C376.417 56.5786 377.645 54.7243 377.443 52.622C377.244 50.5519 375.727 48.9827 374.014 49.0965L373.935 49.1031ZM377.013 52.6634C377.194 54.5457 376.115 56.1733 374.63 56.3165C373.145 56.4594 371.776 55.0676 371.594 53.1856C371.416 51.3339 372.457 49.7284 373.905 49.5412L373.977 49.5332C375.462 49.3897 376.832 50.7815 377.013 52.6634Z" fill="#253368"/>
<path d="M377.541 53.9208C377.622 53.8335 377.759 53.8289 377.846 53.9104C377.925 53.9844 377.936 54.104 377.876 54.1907L377.857 54.2157L376.873 55.2687L377.94 56.2048C378.022 56.2763 378.036 56.3955 377.979 56.4839L377.96 56.5096C377.888 56.5911 377.769 56.6061 377.681 56.5487L377.655 56.5294L376.421 55.4467C376.338 55.3739 376.324 55.2512 376.385 55.1625L376.405 55.1371L377.541 53.9208Z" fill="#DD936F"/>
<path d="M377.016 58.6437C376.916 58.7099 376.782 58.6831 376.716 58.5838C376.65 58.4845 376.677 58.3504 376.776 58.2843C376.999 58.1355 377.241 58.0305 377.497 57.9659C378.076 57.8199 378.687 57.8845 379.276 58.0786C379.494 58.1503 379.658 58.2226 379.754 58.2729C379.859 58.3284 379.9 58.459 379.844 58.5646C379.793 58.6614 379.679 58.7035 379.579 58.6671L379.476 58.6187C379.467 58.6145 379.457 58.6101 379.446 58.6055C379.356 58.5659 379.254 58.5261 379.141 58.4889C378.623 58.3182 378.09 58.2619 377.602 58.3849C377.393 58.4376 377.197 58.5229 377.016 58.6437Z" fill="#F5222D"/>
<path fill-rule="evenodd" clip-rule="evenodd" d="M377.333 64.6919C377.333 64.6919 375.508 71.5043 372.832 96.7456C370.915 114.833 370.561 157.061 370.561 157.061C370.561 157.061 362.397 156.196 361.965 154.304C360.773 149.081 361.666 119.857 362.29 106.944C363.425 83.4252 361.16 75.5281 363.268 70.3375C365.51 69.1566 369.547 68.3415 373.44 66.7602C374.31 66.4068 375.461 65.204 375.995 64.9353C377.448 64.2054 377.333 64.6919 377.333 64.6919Z" fill="#E4EBF7"/>
<path d="M364.089 77.6144C364.208 77.6225 364.298 77.7256 364.29 77.8445L364.21 79.0957C364.179 79.6035 364.145 80.1692 364.11 80.7899L364.022 82.3761C363.916 84.3309 363.812 86.4692 363.713 88.7645C363.551 92.5331 363.416 96.4499 363.317 100.461C363.314 100.581 363.215 100.675 363.096 100.672C362.977 100.669 362.882 100.57 362.885 100.451C362.97 97.0099 363.082 93.6388 363.214 90.3711L363.282 88.7461C363.391 86.1936 363.508 83.8355 363.626 81.7073L363.725 79.9696L363.859 77.8151C363.867 77.6962 363.97 77.6063 364.089 77.6144Z" fill="#A3B5D6"/>
<path d="M377.329 52.2428C377.627 52.1036 377.938 52.1276 378.228 52.2465C378.317 52.2828 378.385 52.3199 378.426 52.3476C378.526 52.4138 378.552 52.5481 378.486 52.6474C378.426 52.7376 378.31 52.7678 378.215 52.7229L378.153 52.6872C378.131 52.6754 378.101 52.661 378.065 52.6463C377.875 52.5688 377.684 52.5541 377.512 52.6345C377.474 52.6518 377.438 52.6736 377.402 52.7001C377.307 52.7719 377.171 52.7526 377.1 52.6572C377.028 52.5616 377.048 52.4262 377.143 52.3548C377.203 52.3102 377.264 52.2727 377.329 52.2428Z" fill="#253368"/>
<path d="M382.85 62.0207C382.937 61.9997 383.025 62.0532 383.046 62.1402C383.067 62.2272 383.013 62.3148 382.926 62.3355C382.472 62.4447 381.955 62.5305 381.385 62.5956C380.32 62.7177 379.213 62.7575 378.268 62.7503L377.937 62.7454C377.847 62.7428 377.777 62.6682 377.779 62.5789C377.782 62.4893 377.856 62.419 377.946 62.4213L378.073 62.4239C379.048 62.4386 380.223 62.4026 381.348 62.2739C381.905 62.2099 382.411 62.1261 382.85 62.0207Z" fill="#DD936F"/>
<path fill-rule="evenodd" clip-rule="evenodd" d="M399.52 70.7023C397.774 69.8443 393.719 67.9853 391.566 66.7192C390.187 65.9081 389.087 64.8297 387.998 64.4484C381.672 90.8049 384.888 143.33 386.104 157.927C394.377 159.143 399.757 155.601 399.757 155.601C399.757 155.601 399.897 118.976 399.378 102.402C398.946 88.6153 400.393 71.1318 399.52 70.7023Z" fill="#E4EBF7"/>
<path d="M387.917 64.2154C387.98 64.127 388.097 64.1005 388.191 64.1486L388.218 64.1653L391.584 66.5703C391.632 66.6049 391.664 66.6573 391.672 66.7155L391.675 66.7446L391.673 66.8586C391.67 67.0047 391.659 67.2158 391.638 67.4937L391.631 67.5793C391.578 68.242 391.481 69.0442 391.331 69.9901L391.268 70.3769C390.841 72.9196 390.114 75.9986 389.019 79.6384L388.676 80.7729C386.327 88.5975 385.528 92.5544 384.319 101.539C384.303 101.657 384.194 101.74 384.076 101.724C383.958 101.708 383.875 101.599 383.891 101.481L384.061 100.228C385.211 91.8845 386.06 87.9278 388.433 80.0828L388.52 79.7939C389.715 75.8615 390.48 72.5812 390.904 69.9221L390.961 69.5557C391.069 68.8385 391.143 68.2129 391.19 67.6766L391.201 67.5444C391.214 67.3803 391.224 67.2331 391.231 67.1029L391.241 66.8557L387.967 64.5167C387.879 64.4536 387.852 64.3364 387.9 64.2428L387.917 64.2154Z" fill="#A3B5D6"/>
<path fill-rule="evenodd" clip-rule="evenodd" d="M380.131 52.9593C380.131 53.4518 380.349 53.8516 380.618 53.8516C380.887 53.8516 381.105 53.4518 381.105 52.9593C381.105 52.4665 380.887 52.0673 380.618 52.0673C380.349 52.0673 380.131 52.4665 380.131 52.9593Z" fill="#253368"/>
<path fill-rule="evenodd" clip-rule="evenodd" d="M373.806 53.0406C373.806 53.5335 374.024 53.9327 374.293 53.9327C374.561 53.9327 374.779 53.5335 374.779 53.0406C374.779 52.5481 374.561 52.1489 374.293 52.1489C374.024 52.1489 373.806 52.5481 373.806 53.0406Z" fill="#253368"/>
<path d="M377.091 64.1068C377.191 64.0406 377.325 64.0673 377.391 64.1667C377.451 64.2569 377.434 64.3758 377.356 64.4464L377.331 64.4663L373.991 66.6933L373.955 66.822L373.927 66.9298C373.857 67.1939 373.78 67.5156 373.697 67.8964C373.459 68.9866 373.22 70.3293 372.997 71.9354L372.935 72.3884C371.943 79.8443 371.632 89.9155 372.399 102.876C372.406 102.995 372.315 103.097 372.196 103.105C372.077 103.111 371.975 103.02 371.968 102.901L371.922 102.11C371.197 89.2403 371.545 79.2536 372.569 71.8758L372.634 71.421C372.839 70.0033 373.057 68.8005 373.275 67.8039L373.33 67.5551C373.376 67.3549 373.419 67.1728 373.461 67.0087L373.527 66.7517L373.575 66.5769C373.586 66.536 373.595 66.5084 373.599 66.4937C373.611 66.4557 373.633 66.422 373.662 66.3957L373.686 66.3776L377.091 64.1068Z" fill="#A3B5D6"/>
<path d="M384.631 52.6579L388.027 53.1245C388.146 53.1409 388.228 53.2498 388.212 53.3682C388.197 53.4765 388.104 53.5548 387.998 53.5548L387.969 53.5528L384.572 53.0862C384.454 53.0698 384.371 52.9609 384.387 52.8425C384.402 52.7342 384.495 52.6559 384.602 52.6559L384.631 52.6579Z" fill="#253368"/>
<path d="M398.89 114.055C399.008 114.039 399.117 114.121 399.133 114.24C399.148 114.348 399.08 114.448 398.977 114.477L398.949 114.483L391.673 115.484V130.782C391.673 131.962 392.693 132.878 393.859 132.761L393.925 132.753L399.134 132.058C399.252 132.042 399.36 132.125 399.376 132.244C399.391 132.352 399.322 132.452 399.22 132.48L399.191 132.486L393.982 133.181C392.555 133.371 391.285 132.284 391.242 130.856L391.241 130.782V115.296C391.241 115.198 391.307 115.114 391.399 115.088L391.427 115.082L398.89 114.055Z" fill="#A3B5D6"/>
<path d="M373.418 124.46C373.458 124.388 373.544 124.358 373.619 124.386L373.644 124.397L377.536 126.587C377.57 126.606 377.596 126.636 377.61 126.672L377.618 126.7L379.629 137.187C379.646 137.277 379.588 137.363 379.498 137.381C379.417 137.396 379.338 137.35 379.311 137.275L379.304 137.249L377.306 126.838L373.481 124.686C373.409 124.646 373.379 124.56 373.406 124.485L373.418 124.46Z" fill="black"/>
<path fill-rule="evenodd" clip-rule="evenodd" d="M387.447 191.985H398.991C399.236 191.985 399.429 191.764 399.414 191.503L399.108 186.196C399.095 185.957 398.909 185.77 398.686 185.77H386.417C386.148 185.77 385.948 186.035 386.002 186.317L387.032 191.624C387.073 191.834 387.246 191.985 387.447 191.985Z" fill="#4E5C93"/>
<path fill-rule="evenodd" clip-rule="evenodd" d="M363.131 191.904H373.905C374.125 191.904 374.311 191.738 374.335 191.519L374.887 186.472C374.915 186.216 374.714 185.993 374.458 185.993H362.819C362.57 185.993 362.373 186.203 362.388 186.451L363.053 191.633C363.067 191.873 362.902 191.904 363.131 191.904Z" fill="#4E5C93"/>
<path fill-rule="evenodd" clip-rule="evenodd" d="M373.092 196.366C373.092 196.366 372.288 197.785 369.498 199.878C367.115 201.665 366.04 202.64 364.885 202.151C362.776 201.259 361.155 200.813 361.155 200.813C361.155 200.813 359.208 201.826 357.748 202.962C356.289 204.097 357.099 205.557 360.343 206.044C363.588 206.53 364.829 206.712 367.885 204.341C370.942 201.969 372.285 202.932 372.751 201.583C373.481 199.475 373.092 196.366 373.092 196.366Z" fill="#253368"/>
<path d="M362.141 113.361C362.176 113.258 362.282 113.199 362.387 113.219L362.415 113.227L366.201 114.524C366.279 114.551 366.334 114.619 366.345 114.698L366.347 114.729V130.393C366.347 131.375 365.398 132.071 364.468 131.789L364.412 131.771L361.842 130.881C361.73 130.842 361.67 130.719 361.709 130.606C361.744 130.503 361.851 130.444 361.955 130.465L361.984 130.473L364.554 131.362C365.203 131.587 365.881 131.122 365.914 130.445L365.915 130.393V114.883L362.275 113.635C362.171 113.6 362.112 113.494 362.133 113.39L362.141 113.361Z" fill="#A3B5D6"/>
<path fill-rule="evenodd" clip-rule="evenodd" d="M395.098 103.814C398.392 104.268 401.431 101.966 401.885 98.6716L404.83 77.3184C405.284 74.0243 402.982 70.9853 399.688 70.5308C396.393 70.0766 393.354 72.3791 392.9 75.6732L389.955 97.0264C389.501 100.321 391.803 103.36 395.098 103.814Z" fill="#E4EBF7"/>
<path fill-rule="evenodd" clip-rule="evenodd" d="M378.761 70.5985C378.761 70.5985 382.359 74.1279 385.065 72.8995C387.516 71.7866 386.7 69.2081 386.7 69.2081C386.7 69.2081 386.296 66.5171 384.734 63.9257C383.704 62.2183 381.419 59.1701 380.449 59.5898C379.184 60.1362 381.973 63.4352 381.216 64.0928C380.44 64.7676 379.813 64.1288 377.91 63.1446C376.721 62.5294 375.791 61.4553 374.683 61.1261C372.518 60.4824 372.923 65.7535 378.761 70.5985Z" fill="#FFC999"/>
<path d="M380.346 59.5924C381.287 59.1854 383.296 61.4427 384.834 63.9935C384.89 64.0859 384.945 64.1795 384.998 64.274C385.629 65.3809 386.106 66.5659 386.45 67.7505C386.571 68.1653 386.666 68.5504 386.739 68.8966L386.774 69.0682C386.784 69.1221 386.794 69.1725 386.802 69.2192L386.822 69.3358C386.835 69.4245 386.774 69.5069 386.685 69.5202C386.597 69.5337 386.515 69.4726 386.501 69.3842L386.483 69.2762C386.467 69.1861 386.447 69.0812 386.422 68.9631C386.35 68.625 386.257 68.2474 386.139 67.841C385.802 66.6791 385.335 65.5174 384.717 64.4345C384.664 64.3423 384.611 64.251 384.556 64.1608L384.437 63.9653C383.032 61.6913 381.145 59.5999 380.474 59.8897C380.088 60.057 380.172 60.5878 380.7 61.7705L381.005 62.4416C381.554 63.6617 381.637 64.0603 381.284 64.3671C381.193 64.446 381.103 64.5093 381.011 64.5583C380.637 64.7591 380.263 64.7208 379.719 64.4702L379.604 64.4134C379.221 64.2176 378.272 63.6913 377.882 63.4845L377.797 63.4399C377.424 63.2469 377.095 63.0286 376.603 62.6634L376.168 62.3379C376.042 62.2437 375.939 62.1685 375.841 62.0985C375.357 61.7549 374.98 61.5464 374.598 61.4326C373.684 61.161 373.312 62.1792 373.837 63.9088C374.474 66.0042 376.209 68.4536 378.826 70.6256C378.895 70.6829 378.904 70.7849 378.847 70.8537C378.79 70.9226 378.688 70.9321 378.619 70.875C375.955 68.6644 374.184 66.1623 373.527 64.003C372.94 62.0718 373.425 60.746 374.691 61.1221C375.113 61.248 375.519 61.4718 376.029 61.8344L376.153 61.9237C376.195 61.9548 376.24 61.9877 376.288 62.0231L376.696 62.3287C377.199 62.7048 377.525 62.9278 377.875 63.115L378.085 63.2253C378.542 63.4701 379.543 64.0249 379.824 64.1614L379.854 64.1758C380.315 64.3881 380.591 64.4163 380.858 64.2729C380.927 64.2357 380.998 64.1862 381.071 64.1225C381.262 63.9566 381.144 63.5301 380.626 62.3912L380.483 62.079C379.793 60.57 379.661 59.8885 380.346 59.5924Z" fill="#DD936F"/>
<path d="M374.163 62.0355C374.235 61.9825 374.337 61.9981 374.39 62.0701C374.687 62.4742 375.003 62.8449 375.335 63.1842C376.127 63.9938 376.975 64.5906 377.823 65.0071C378.119 65.1525 378.393 65.2649 378.638 65.3484L378.739 65.3818C378.832 65.4112 378.9 65.4296 378.938 65.4383C379.026 65.4581 379.08 65.5448 379.061 65.6321C379.041 65.7194 378.954 65.7741 378.867 65.7545L378.806 65.739L378.776 65.7309C378.706 65.7113 378.625 65.6862 378.534 65.6551C378.276 65.5673 377.989 65.4495 377.68 65.298C376.801 64.8657 375.922 64.2478 375.103 63.4108C374.761 63.0609 374.435 62.6784 374.129 62.2619C374.076 62.1899 374.091 62.0885 374.163 62.0355Z" fill="#DD936F"/>
<path d="M374.42 64.0683C374.494 64.0173 374.595 64.036 374.645 64.1098L374.733 64.2296L374.761 64.2653C374.858 64.3917 374.973 64.5329 375.105 64.6852C375.485 65.121 375.928 65.5571 376.429 65.9638C377.034 66.4543 377.684 66.8682 378.374 67.1807C378.455 67.2176 378.491 67.3138 378.454 67.3953C378.417 67.4768 378.321 67.5128 378.24 67.476C377.523 67.1511 376.851 66.7225 376.225 66.2155C375.708 65.7962 375.252 65.3471 374.861 64.8981C374.751 64.7719 374.653 64.6533 374.566 64.5432L374.503 64.4626C374.442 64.3828 374.401 64.3252 374.379 64.2935C374.328 64.2201 374.346 64.119 374.42 64.0683Z" fill="#DD936F"/>
<path d="M375.114 66.4833C375.178 66.4214 375.281 66.424 375.343 66.4885C376.2 67.3866 377.014 68.0508 377.759 68.5168C378.018 68.6787 378.25 68.8046 378.45 68.8982L378.532 68.9351C378.606 68.9679 378.658 68.9883 378.687 68.9981C378.772 69.0264 378.818 69.118 378.79 69.2029C378.762 69.2879 378.67 69.3337 378.585 69.3055L378.539 69.289C378.486 69.2689 378.41 69.2369 378.313 69.1917C378.101 69.0926 377.858 68.9607 377.588 68.7916C376.82 68.3112 375.984 67.6297 375.108 66.7123C375.047 66.6475 375.049 66.545 375.114 66.4833Z" fill="#DD936F"/>
<path fill-rule="evenodd" clip-rule="evenodd" d="M387.704 70.3866L378.585 75.2073L390.951 100.448C392.506 103.388 396.149 104.511 399.089 102.957C402.029 101.403 403.152 97.759 401.598 94.8194L387.704 70.3866Z" fill="#E4EBF7"/>
<path d="M387.532 70.0608C387.625 70.0113 387.74 70.0375 387.803 70.1187L387.82 70.1447L399.602 90.7625C399.662 90.8662 399.626 90.9981 399.522 91.0572C399.427 91.1116 399.308 91.0857 399.244 91.0013L399.227 90.9768L387.549 70.5404L378.615 75.2635C378.518 75.3147 378.401 75.2851 378.339 75.1984L378.323 75.1736C378.272 75.0768 378.301 74.959 378.388 74.8971L378.413 74.8816L387.532 70.0608Z" fill="#A3B5D6"/>
<path d="M388.93 74.4038C389.036 74.3482 389.167 74.3885 389.222 74.4939C389.273 74.5907 389.244 74.7085 389.157 74.7704L389.132 74.7857L381.389 78.8794C381.284 78.9353 381.153 78.895 381.097 78.7893C381.046 78.6928 381.076 78.5747 381.162 78.5128L381.187 78.4975L388.93 74.4038Z" fill="#A3B5D6"/>
<path fill-rule="evenodd" clip-rule="evenodd" d="M390.553 100.256C390.553 100.256 385.527 99.8939 384.658 97.052C383.87 94.4781 386.343 93.3833 386.343 93.3833C386.343 93.3833 388.629 91.9058 391.605 91.3622C393.566 91.0042 397.364 90.7018 397.691 91.7062C398.118 93.0161 393.8 93.1086 393.807 94.1106C393.815 95.1397 394.709 95.1864 396.706 95.9618C397.954 96.4465 399.375 96.4333 400.355 97.0459C402.269 98.2435 398.049 101.428 390.553 100.256Z" fill="#FFC999"/>
<path d="M394.094 96.7561C394.14 96.6922 394.23 96.6778 394.294 96.7239L394.329 96.7478C394.34 96.7553 394.353 96.7636 394.368 96.7734C394.433 96.8149 394.509 96.8613 394.598 96.9114C394.854 97.0551 395.156 97.1994 395.502 97.3342C396.744 97.8187 398.2 98.056 399.842 97.9097C399.921 97.9028 399.99 97.9607 399.997 98.0396C400.004 98.1182 399.946 98.1876 399.868 98.1945C398.179 98.3449 396.68 98.1006 395.398 97.6006C395.039 97.4606 394.726 97.3109 394.458 97.1605C394.388 97.1211 394.324 97.0833 394.268 97.0482L394.214 97.0139C394.171 96.9868 394.142 96.967 394.127 96.9557C394.063 96.9096 394.048 96.8204 394.094 96.7561Z" fill="#DD936F"/>
<path d="M393.176 98.3741C393.208 98.3021 393.293 98.2701 393.365 98.3024C393.441 98.3366 393.518 98.3695 393.595 98.4014C395.073 99.0106 396.624 99.1716 397.932 99.0852L398.078 99.074C398.107 99.0714 398.129 99.0691 398.144 99.0674C398.223 99.0579 398.294 99.1137 398.303 99.1921C398.313 99.2707 398.257 99.3419 398.178 99.3511L398.073 99.3614C398.039 99.3643 397.998 99.3675 397.951 99.3707C396.603 99.4597 395.011 99.2943 393.486 98.6659C393.406 98.6327 393.326 98.5987 393.248 98.5633C393.176 98.5308 393.144 98.4464 393.176 98.3741Z" fill="#DD936F"/>
<path d="M391.598 99.3208C391.637 99.2523 391.725 99.2292 391.793 99.269C391.835 99.2935 391.926 99.339 392.067 99.3989C392.305 99.4997 392.596 99.6011 392.94 99.6958C393.757 99.9211 394.74 100.073 395.896 100.118C395.975 100.122 396.036 100.188 396.033 100.267C396.03 100.346 395.964 100.407 395.885 100.404C394.707 100.358 393.702 100.203 392.864 99.9718C392.552 99.8856 392.281 99.7943 392.052 99.7019L391.955 99.6621C391.804 99.5976 391.702 99.5466 391.649 99.5161C391.581 99.4766 391.558 99.3891 391.598 99.3208Z" fill="#DD936F"/>
<path fill-rule="evenodd" clip-rule="evenodd" d="M386.75 90.1511L386.843 100.466L358.758 101.584C355.433 101.614 352.713 98.9428 352.682 95.617C352.652 92.2914 355.324 89.5713 358.649 89.541L386.75 90.1511Z" fill="#E4EBF7"/>
<path d="M359.549 89.3531L386.906 89.9338C387.013 89.9361 387.1 90.0159 387.115 90.1193L387.117 90.1478L387.211 100.462C387.212 100.57 387.134 100.659 387.032 100.677L387.003 100.68L361.413 101.697C361.294 101.701 361.193 101.609 361.189 101.489C361.184 101.38 361.262 101.287 361.367 101.268L361.396 101.265L386.776 100.257L386.687 90.3612L359.54 89.7852C359.431 89.7829 359.342 89.6996 359.33 89.5939L359.329 89.5646C359.331 89.4551 359.414 89.3667 359.52 89.3546L359.549 89.3531Z" fill="#A3B5D6"/>
<path d="M382.414 90.7683C382.524 90.7675 382.615 90.8478 382.63 90.9532L382.632 90.9826L382.711 99.7404C382.712 99.8596 382.616 99.9573 382.497 99.9584C382.388 99.9593 382.297 99.8789 382.281 99.7735L382.279 99.7444L382.2 90.9864C382.199 90.8671 382.295 90.7695 382.414 90.7683Z" fill="#A3B5D6"/>
</g>
<defs>
<clipPath id="clip0">
<rect width="450" height="366.994" fill="white" transform="translate(-10 -39)"/>
</clipPath>
</defs>
</svg>
