<svg width="20" height="18" viewBox="0 0 20 18" fill="none" xmlns="http://www.w3.org/2000/svg">
<g opacity="0.3">
<g clip-path="url(#clip0)">
<path d="M15.3236 8.42783C15.1922 9.03241 14.7953 9.54555 14.2433 9.82481C13.6603 10.1196 12.9718 10.1196 12.3888 9.82481C11.8368 9.54555 11.4399 9.03241 11.3086 8.42783L11.2823 8.30685C11.1486 7.69199 11.2908 7.04944 11.6713 6.54831L11.7132 6.49315C12.0937 5.99196 12.6868 5.69763 13.3161 5.69763C13.9453 5.69763 14.5384 5.99196 14.9189 6.49315L14.9608 6.54831C15.3413 7.04944 15.4835 7.69199 15.3499 8.30685L15.3236 8.42783Z" fill="black"/>
<path d="M16.3949 14.5249H12.1833V14.4096C12.1833 13.3941 11.8446 12.4356 11.2563 11.6633C12.6665 11.1982 14.1952 11.2234 15.5925 11.739C16.4379 12.051 16.9993 12.8567 16.9993 13.7579V13.9204C16.9993 14.2543 16.7287 14.5249 16.3949 14.5249Z" fill="black"/>
<path d="M9.86 15.6583H0.906669C0.405929 15.6583 0 15.2524 0 14.7517V14.4096C0 13.1148 0.800961 11.955 2.01186 11.4963C4.18421 10.6736 6.58246 10.6736 8.7548 11.4963C9.96571 11.955 10.7667 13.1148 10.7667 14.4096V14.7517C10.7667 15.2524 10.3607 15.6583 9.86 15.6583Z" fill="black"/>
<path d="M4.00669 8.59707C4.86978 9.04508 5.89687 9.04508 6.75996 8.59707C7.55377 8.18502 8.12126 7.43903 8.30653 6.56404L8.36453 6.2902C8.5547 5.39209 8.35101 4.45553 7.805 3.71754L7.71142 3.59105C7.16532 2.85291 6.30152 2.41748 5.38332 2.41748C4.46513 2.41748 3.60133 2.85291 3.05523 3.59105L2.96165 3.71754C2.41565 4.45554 2.21196 5.39209 2.40213 6.2902L2.46012 6.56404C2.6454 7.43903 3.21288 8.18502 4.00669 8.59707Z" fill="black"/>
</g>
</g>
<defs>
<clipPath id="clip0">
<rect width="17" height="13.3167" fill="white" transform="translate(0 2.34167)"/>
</clipPath>
</defs>
</svg>
