<svg width="448" height="410" viewBox="0 0 448 410" fill="none" xmlns="http://www.w3.org/2000/svg">
<g clip-path="url(#clip0)">
<ellipse cx="223.5" cy="387" rx="105.5" ry="15" fill="#8F9BB3"/>
<path fill-rule="evenodd" clip-rule="evenodd" d="M257.605 258.79L252.436 205.103C251.487 195.285 243.228 190.813 233.409 191.749C233.409 191.749 214.758 195.663 217.405 216.251L226.31 266.045C226.31 266.045 227.947 277.089 243.896 274.98C258.431 273.057 257.605 258.79 257.605 258.79Z" fill="#253368"/>
<path fill-rule="evenodd" clip-rule="evenodd" d="M236.604 312.321C231.819 312.024 227.817 315.906 227.979 320.699C228.259 328.892 228.527 341.493 228.123 353.203C227.76 363.698 225.448 370.681 227.21 373.607C229.109 376.762 234.048 374.808 237.432 378.964C240.815 383.119 243.234 386.29 253.755 385.214C266.061 383.955 255.797 379.527 250.791 373.802C241.949 363.693 241.238 359.3 241.455 352.603C241.899 338.887 243.132 328.412 244.139 321.599C244.834 316.899 241.345 312.617 236.604 312.321Z" fill="#FFC999"/>
<path fill-rule="evenodd" clip-rule="evenodd" d="M227.266 363.36C227.266 363.36 228.706 365.788 234.035 371.16C238.238 375.397 240.989 377.986 243.629 377.175C248.449 375.694 252.101 375.082 252.101 375.082C252.101 375.082 256.138 377.738 259.079 380.554C262.023 383.369 261.189 387.368 253.974 387.705C246.758 388.043 242.727 387.179 236.564 381.298C230.402 375.416 227.245 377.226 226.524 374.165C225.398 369.383 227.266 363.36 227.266 363.36Z" fill="#253368"/>
<path fill-rule="evenodd" clip-rule="evenodd" d="M258.09 262.092L247.174 347.957C246.723 351.505 243.32 353.997 239.563 353.529L229.17 352.235C225.636 351.795 223.001 348.875 223.099 345.509L225.574 261.282C225.574 261.282 228.57 246.719 243.524 248.079C258.123 249.405 258.09 262.092 258.09 262.092Z" fill="#253368"/>
<path fill-rule="evenodd" clip-rule="evenodd" d="M246.389 354.962L222.885 351.729C222.403 351.663 222.049 351.245 222.063 350.76L222.373 339.584C222.387 339.018 222.892 338.591 223.454 338.667L248.842 342.16C249.385 342.235 249.754 342.753 249.646 343.289L247.452 354.207C247.353 354.7 246.886 355.031 246.389 354.962Z" fill="#4E5C93"/>
<path fill-rule="evenodd" clip-rule="evenodd" d="M200.262 318.004C195.474 317.73 191.492 321.634 191.68 326.426C192.002 334.616 192.337 347.217 191.994 358.929C191.687 369.427 189.411 376.421 191.187 379.338C193.103 382.482 198.033 380.502 201.437 384.64C204.842 388.779 207.277 391.937 217.794 390.805C230.092 389.483 219.805 385.108 214.77 379.409C205.874 369.345 205.14 364.958 205.322 358.26C205.696 344.542 206.874 334.059 207.846 327.242C208.516 322.539 205.005 318.275 200.262 318.004Z" fill="#FFC999"/>
<path fill-rule="evenodd" clip-rule="evenodd" d="M191.191 369.09C191.191 369.09 192.643 371.511 198.001 376.854C202.227 381.069 204.99 383.645 207.625 382.82C212.437 381.314 216.087 380.682 216.087 380.682C216.087 380.682 220.136 383.318 223.094 386.117C226.052 388.917 225.239 392.92 218.025 393.296C210.812 393.671 206.776 392.828 200.583 386.979C194.389 381.13 191.242 382.956 190.505 379.899C189.354 375.122 191.191 369.09 191.191 369.09Z" fill="#253368"/>
<path fill-rule="evenodd" clip-rule="evenodd" d="M184.981 264.839L183.594 212.197C183.447 201.308 192.946 192.793 203.755 194.127C213.11 195.281 219.982 203.47 219.495 212.884L216.755 265.783C216.755 265.783 216.801 280.895 200.952 280.281C185.54 279.685 184.981 264.839 184.981 264.839Z" fill="#253368"/>
<path fill-rule="evenodd" clip-rule="evenodd" d="M184.975 259.435L187.335 353.09C187.392 355.328 189.069 357.194 191.29 357.488L206.96 359.56C209.6 359.908 211.975 357.927 212.105 355.267L216.582 262.893C216.582 262.893 217.935 247.219 201.105 246.435C185.407 245.704 184.975 259.435 184.975 259.435Z" fill="#253368"/>
<path fill-rule="evenodd" clip-rule="evenodd" d="M186.546 357.455L212.239 360.853C212.782 360.924 213.274 360.522 213.312 359.975L214.089 348.867C214.123 348.365 213.762 347.923 213.265 347.857L185.962 344.248C185.363 344.168 184.843 344.659 184.887 345.26L185.722 356.581C185.755 357.032 186.099 357.396 186.546 357.455Z" fill="#4E5C93"/>
<path fill-rule="evenodd" clip-rule="evenodd" d="M213.071 239.778L185.187 218.809C183.251 217.353 182.234 214.976 182.518 212.569L185.776 184.975L250.816 186.054L251.128 214.545C251.146 216.316 250.474 218.019 249.258 219.307C245.526 223.257 236.175 231.107 219.911 239.554C217.705 240.7 214.998 241.349 213.071 239.778Z" fill="#253368"/>
<path d="M187.366 192.882L246.285 194.134C246.487 194.138 246.646 194.305 246.642 194.506C246.638 194.687 246.503 194.835 246.329 194.86L246.27 194.863L187.351 193.611C187.15 193.607 186.99 193.44 186.993 193.239C186.998 193.057 187.133 192.91 187.307 192.885L187.366 192.882Z" fill="#253368"/>
<path d="M221.281 185.565C221.462 185.568 221.61 185.704 221.634 185.878L221.638 185.937L221.468 193.971C221.463 194.173 221.297 194.333 221.095 194.329C220.914 194.325 220.766 194.189 220.742 194.016L220.738 193.956L220.908 185.922C220.913 185.72 221.079 185.56 221.281 185.565Z" fill="#253368"/>
<path fill-rule="evenodd" clip-rule="evenodd" d="M203.173 49.9397C203.173 49.9397 201.85 30.1735 226.441 32.7746C240.093 35.1518 238.243 57.9796 238.243 57.9796C238.243 57.9796 238.881 62.8412 236.748 67.6584C234.36 73.0534 228.99 74.5528 222.036 74.7127C209.226 73.3997 204.523 65.9935 204.523 65.9935C204.523 65.9935 195.637 66.0626 197.123 54.9877C198.571 44.7171 203.173 49.9397 203.173 49.9397Z" fill="#FFC999"/>
<path fill-rule="evenodd" clip-rule="evenodd" d="M206.125 36.5607C205.889 41.6126 201.603 45.5171 196.551 45.2811C191.499 45.0452 187.594 40.7588 187.831 35.7069C188.067 30.6544 192.353 26.7505 197.405 26.9865C202.457 27.2224 206.361 31.5088 206.125 36.5607Z" fill="#253368"/>
<path fill-rule="evenodd" clip-rule="evenodd" d="M238.09 58.6842C238.09 58.6842 241.338 53.6165 243.431 47.4902C245.523 41.3644 234.284 28.3919 232.728 27.3149C231.172 26.2392 230.418 25.2003 219.212 28.6925C186.442 28.475 192.803 58.8054 192.803 58.8054C192.803 58.8054 188.865 61.3837 190.723 68.8984C192.982 76.4328 203.209 77.1692 203.209 77.1692L204.106 65.5907C204.106 65.5907 200.633 65.6897 198.216 61.5613C195.798 57.4335 198.276 52.6695 199.897 52.3435C201.375 51.3395 204.918 52.0416 204.718 56.3229C204.617 58.4781 208.946 53.8378 210.934 45.7072C222.456 44.0366 225.687 36.2218 225.687 36.2218C225.687 36.2218 225.733 43.8533 223.78 46.9745C229.873 45.4523 233.229 42.3964 232.386 38.9441C239.058 42.267 238.09 58.6842 238.09 58.6842Z" fill="#253368"/>
<path fill-rule="evenodd" clip-rule="evenodd" d="M202.568 80.0336L203.664 62.7582L226.18 64.3305C226.18 64.3305 225.544 76.131 225.767 80.9412C240.064 89.6959 206.601 94.2125 199.355 84.7563C197.117 81.8368 202.568 80.0336 202.568 80.0336Z" fill="#FFC999"/>
<path fill-rule="evenodd" clip-rule="evenodd" d="M225.353 54.3669C224.726 58.7281 221.156 61.8252 217.378 61.2829C213.6 60.7393 211.047 56.7638 211.674 52.4013C212.3 48.0395 215.87 44.9437 219.648 45.486C223.425 46.0283 225.979 50.0051 225.353 54.3669Z" fill="white"/>
<path d="M211.203 52.3341C210.54 56.942 213.256 61.1707 217.311 61.7535C221.365 62.3358 225.161 59.0427 225.824 54.4348C226.485 49.8263 223.769 45.597 219.716 45.0147C215.661 44.4331 211.864 47.7256 211.203 52.3341ZM219.581 45.9566C223.081 46.4596 225.473 50.1833 224.882 54.2997C224.291 58.4148 220.947 61.3146 217.446 60.8117C213.945 60.3087 211.553 56.585 212.145 52.4692C212.726 48.4188 215.974 45.5463 219.414 45.9351L219.581 45.9566Z" fill="#253368"/>
<path fill-rule="evenodd" clip-rule="evenodd" d="M240.724 54.4944C240.098 58.8562 236.722 61.9806 233.185 61.4719C229.649 60.9639 227.29 57.0156 227.916 52.6544C228.543 48.2919 231.919 45.1676 235.455 45.6756C238.992 46.1836 241.351 50.1319 240.724 54.4944Z" fill="white"/>
<path d="M227.446 52.5865C226.785 57.1893 229.297 61.3938 233.118 61.9425C236.939 62.4924 240.534 59.165 241.195 54.5622C241.857 49.9587 239.344 45.7536 235.523 45.205C231.702 44.6563 228.107 47.9837 227.446 52.5865ZM235.388 46.1468C238.64 46.6136 240.846 50.3051 240.253 54.4265C239.661 58.5479 236.506 61.4693 233.253 61.0012C230.001 60.5338 227.796 56.8424 228.387 52.7222C228.97 48.6686 232.033 45.7758 235.228 46.1265L235.388 46.1468Z" fill="#253368"/>
<path d="M226.514 55.482C226.641 55.3735 226.825 55.3754 226.95 55.4782L226.994 55.5213L229.367 58.3133C229.478 58.444 229.473 58.6324 229.365 58.7567L229.32 58.8004L226.492 61.0552C226.345 61.1726 226.131 61.1485 226.013 61.0013C225.909 60.8707 225.917 60.6867 226.023 60.565L226.067 60.5225L228.62 58.4865L226.475 55.9621C226.367 55.8346 226.368 55.6507 226.471 55.5257L226.514 55.482Z" fill="#DD936F"/>
<path d="M220.703 62.0864C220.785 61.8371 221.053 61.7008 221.303 61.7832L221.598 61.8752L221.773 61.9278C222.144 62.0369 222.547 62.1466 222.966 62.2494C223.533 62.3877 224.085 62.5018 224.602 62.5824C225.479 62.7187 226.207 62.7511 226.721 62.6617C226.98 62.6166 227.227 62.7898 227.272 63.0486C227.317 63.3074 227.143 63.5541 226.884 63.5991C226.247 63.7101 225.426 63.6739 224.455 63.5224C223.91 63.4374 223.332 63.3181 222.74 63.1735C222.415 63.0936 222.099 63.0099 221.799 62.9249L221.241 62.7606C221.139 62.7295 221.06 62.7048 221.006 62.687C220.756 62.6046 220.62 62.3363 220.703 62.0864Z" fill="#F5222D"/>
<path d="M225.72 51.6922C226.314 51.4727 226.946 51.4277 227.554 51.6795C227.758 51.7638 227.952 51.8799 228.132 52.0296C228.335 52.197 228.363 52.4964 228.196 52.6994C228.028 52.9017 227.728 52.9302 227.526 52.7628C227.419 52.674 227.307 52.6068 227.19 52.5586C226.837 52.4127 226.44 52.4406 226.05 52.5846C225.926 52.6302 225.838 52.674 225.8 52.6975C225.574 52.8326 225.282 52.7596 225.147 52.5345C225.011 52.3093 225.084 52.0169 225.309 51.8818C225.396 51.8298 225.536 51.76 225.72 51.6922Z" fill="#253368"/>
<path d="M214.158 72.9526C214.21 72.7718 214.399 72.6678 214.58 72.7205C215.556 73.0033 216.684 73.2437 217.933 73.4441C219.55 73.7036 221.286 73.8831 223.021 73.9979C223.507 74.0296 223.965 74.0549 224.388 74.0733L225.332 74.1063C225.519 74.1101 225.669 74.2655 225.666 74.4533C225.662 74.6416 225.507 74.7913 225.319 74.7875L224.672 74.7672C224.16 74.7469 223.59 74.7177 222.976 74.6772C221.221 74.5617 219.466 74.3797 217.825 74.1165C216.551 73.9122 215.396 73.6661 214.39 73.3744C214.209 73.3224 214.106 73.1334 214.158 72.9526Z" fill="#DD936F"/>
<path fill-rule="evenodd" clip-rule="evenodd" d="M219.356 52.9531C219.304 54.037 218.783 54.8933 218.193 54.8654C217.602 54.8381 217.164 53.9368 217.214 52.8535C217.265 51.7695 217.786 50.9133 218.376 50.9412C218.967 50.9685 219.406 51.8698 219.356 52.9531Z" fill="#253368"/>
<path fill-rule="evenodd" clip-rule="evenodd" d="M234.656 53.2347C234.605 54.3186 234.085 55.1749 233.494 55.147C232.903 55.1197 232.464 54.2184 232.516 53.1351C232.566 52.0512 233.086 51.1949 233.678 51.2228C234.269 51.2501 234.707 52.1514 234.656 53.2347Z" fill="#253368"/>
<path d="M211.674 52.4013L205.444 52.2446" stroke="#253368" stroke-width="1.5" stroke-linecap="round" stroke-linejoin="round"/>
<path fill-rule="evenodd" clip-rule="evenodd" d="M291.788 146.507C297.001 141.192 296.917 132.658 291.603 127.445L261.16 97.5892C255.845 92.3762 247.31 92.46 242.098 97.7745C236.885 103.09 236.968 111.624 242.283 116.837L272.727 146.693C278.041 151.905 286.575 151.822 291.788 146.507Z" fill="#E4EBF7"/>
<path fill-rule="evenodd" clip-rule="evenodd" d="M301.217 71.0796C301.217 71.0796 300.903 81.6781 295.008 83.7579C289.667 85.6416 287.146 80.5422 287.146 80.5422C287.146 80.5422 283.836 75.8695 282.429 69.6627C281.502 65.5729 280.528 57.6174 282.609 56.8392C285.324 55.8256 285.904 64.8943 288.01 64.789C290.172 64.6805 290.19 62.7974 291.642 58.5314C292.55 55.8656 292.396 52.8801 293.596 50.7661C295.942 46.6345 303.011 55.2218 301.217 71.0796Z" fill="#FFC999"/>
<path d="M294.174 50.4352C294.352 50.4117 294.515 50.5373 294.538 50.7155C295.022 54.3778 294.599 57.6455 293.597 60.4337C293.347 61.1288 293.079 61.739 292.811 62.2597L292.674 62.5172C292.63 62.5972 292.588 62.6707 292.548 62.7386L292.443 62.9092C292.344 63.0595 292.143 63.1008 291.992 63.0018C291.843 62.9035 291.801 62.7012 291.9 62.5515L291.958 62.4602C292.024 62.3498 292.118 62.183 292.232 61.9616C292.488 61.465 292.745 60.8809 292.984 60.2136C293.953 57.5193 294.363 54.3549 293.893 50.8005C293.87 50.6223 293.995 50.4593 294.174 50.4352Z" fill="#DD936F"/>
<path d="M296.607 53.8583C296.786 53.8487 296.939 53.9864 296.949 54.1659L296.954 54.3048C296.978 55.175 296.93 56.3623 296.751 57.7678C296.48 59.9002 295.96 62.0523 295.133 64.1257C295.066 64.2931 294.876 64.3743 294.71 64.3077C294.543 64.2411 294.462 64.0515 294.528 63.8847C295.334 61.8658 295.841 59.767 296.106 57.686L296.168 57.1495C296.281 56.101 296.318 55.1985 296.307 54.4944L296.299 54.2001C296.29 54.0206 296.427 53.8678 296.607 53.8583Z" fill="#DD936F"/>
<path d="M299.274 57.6676C299.453 57.667 299.599 57.8122 299.6 57.9917C299.609 60.6727 299.379 62.932 298.989 64.7815C298.855 65.4202 298.71 65.9637 298.565 66.4153L298.494 66.6284C298.45 66.7559 298.413 66.8549 298.384 66.924L298.364 66.971L298.31 67.0559L298.117 67.2824L297.87 67.5805C297.783 67.6864 297.693 67.7987 297.599 67.9166C297.062 68.5909 296.526 69.3171 296.026 70.0661C295.433 70.9528 294.932 71.8129 294.552 72.6216C293.495 74.8707 293.472 76.4646 294.69 77.2301C294.842 77.3259 294.888 77.527 294.792 77.6792C294.696 77.8314 294.495 77.8771 294.344 77.7813C292.755 76.7823 292.782 74.8561 293.963 72.3444C294.359 71.5034 294.875 70.6167 295.484 69.7046C295.995 68.9397 296.542 68.1989 297.09 67.5113L297.366 67.1682L297.787 66.6659L297.852 66.4927C297.87 66.442 297.89 66.3843 297.912 66.3189L297.946 66.2155C298.083 65.7861 298.222 65.2642 298.352 64.6477C298.733 62.8425 298.958 60.629 298.949 57.9936C298.949 57.8141 299.094 57.6682 299.274 57.6676Z" fill="#DD936F"/>
<path fill-rule="evenodd" clip-rule="evenodd" d="M283.718 79.4259L305.039 83.4624L295.829 141.87C294.528 148.744 287.9 153.262 281.026 151.96C274.153 150.659 269.635 144.031 270.936 137.157L283.718 79.4259Z" fill="#E4EBF7"/>
<path d="M283.862 78.6648L305.183 82.7018C305.429 82.7481 305.591 82.986 305.545 83.2327C305.502 83.4585 305.299 83.6133 305.075 83.6019L305.014 83.5943L284.132 79.6403L273.57 130.284C273.523 130.509 273.317 130.661 273.093 130.645L273.032 130.636C272.807 130.589 272.656 130.383 272.672 130.16L272.68 130.099L283.333 79.0187C283.379 78.796 283.581 78.6457 283.802 78.6578L283.862 78.6648Z" fill="#A3B5D6"/>
<path d="M283.744 88.2625L301.848 91.69C302.094 91.7369 302.257 91.9748 302.21 92.2209C302.167 92.4473 301.964 92.6021 301.741 92.59L301.679 92.5831L283.575 89.1549C283.329 89.1086 283.167 88.8707 283.213 88.624C283.256 88.3982 283.459 88.2434 283.683 88.2549L283.744 88.2625Z" fill="#A3B5D6"/>
<path fill-rule="evenodd" clip-rule="evenodd" d="M230.778 83.2646L229.702 83.2569C230.598 89.7017 206.26 91.0254 202.38 83.5899C202.282 83.4016 202.204 83.224 202.137 83.0527L199.17 83.0305L199.679 195.545C199.679 195.545 221.044 204.275 241.283 196.326C248.734 106.373 230.778 83.2646 230.778 83.2646Z" fill="#597EF7"/>
<path d="M227.482 91.6254C227.663 91.5366 227.882 91.6114 227.971 91.7922C228.059 91.973 227.985 92.1918 227.804 92.2806C227.162 92.5952 226.509 92.8787 225.845 93.1324C220.207 95.2826 214.201 95.1786 208.536 93.7153C207.759 93.5142 207.048 93.3011 206.411 93.0855L206.143 92.9935C205.958 92.9282 205.79 92.8667 205.64 92.8096L205.292 92.6726C205.281 92.6681 205.271 92.6637 205.263 92.6605C205.078 92.5812 204.991 92.3669 205.071 92.1817C205.15 91.9964 205.364 91.9102 205.549 91.9895L205.76 92.0738L206.049 92.1842C206.154 92.2222 206.266 92.2628 206.385 92.3047C207.069 92.5445 207.851 92.7848 208.719 93.0087C214.25 94.4371 220.109 94.5386 225.585 92.4506C226.228 92.2051 226.861 91.9305 227.482 91.6254Z" fill="#597EF7"/>
<path fill-rule="evenodd" clip-rule="evenodd" d="M225.767 80.9412C226.389 82.7831 232.824 94.5848 235.102 150.434C236.916 194.915 236.852 276.262 236.852 276.262C236.852 276.262 259.149 270.917 262.842 263.408C266.649 255.667 262.369 198.896 261.206 170.45C259.088 118.644 261.805 106.492 257.246 95.0288C252.33 92.3928 243.178 88.9076 235.584 85.0734C233.739 84.143 227.562 80.5886 226.384 80.4249" fill="#E4EBF7"/>
<path d="M257.424 109.564C257.686 109.539 257.918 109.731 257.943 109.992L258.065 111.34L258.283 113.915C258.316 114.321 258.35 114.741 258.384 115.177L258.541 117.182C258.82 120.815 259.096 124.813 259.356 129.115C260.009 139.917 260.475 151.135 260.669 162.397C260.674 162.66 260.465 162.876 260.202 162.881C259.939 162.885 259.722 162.676 259.718 162.413C259.536 151.869 259.116 141.362 258.526 131.2L258.406 129.172C258.097 124.07 257.767 119.397 257.436 115.253L257.206 112.461L256.996 110.082C256.97 109.821 257.163 109.589 257.424 109.564Z" fill="#A3B5D6"/>
<path fill-rule="evenodd" clip-rule="evenodd" d="M174.452 92.6586C181.979 88.9634 190.254 87.4107 195.015 84.6574C198.064 82.8948 200.505 80.5372 202.91 79.7158C219.573 149.247 214.62 237.19 212.179 277.354C193.945 279.898 170.691 262.556 170.691 262.556C170.691 262.556 176.789 201.504 178.203 165.014C179.379 134.663 172.528 93.6036 174.452 92.6586Z" fill="#E4EBF7"/>
<path d="M201.79 79.0499C201.998 78.8888 202.296 78.9268 202.457 79.1342C202.604 79.3232 202.586 79.5871 202.425 79.7545L202.373 79.8015L195.719 84.958L195.717 85.0411C195.661 87.1913 195.781 90.3144 196.218 94.3058L196.313 95.1443C197.074 101.645 198.501 108.83 200.749 116.584L201.237 118.238C201.583 119.406 201.93 120.57 202.304 121.812L205.154 131.242C206.505 135.733 207.417 138.902 208.22 141.963L208.385 142.595C210.157 149.442 211.386 155.884 212.434 164.132C212.467 164.393 212.282 164.631 212.022 164.664C211.761 164.697 211.523 164.513 211.49 164.252C210.48 156.299 209.302 150.043 207.628 143.471L207.3 142.204C206.611 139.576 205.84 136.867 204.777 133.298L201.117 121.167C200.8 120.109 200.498 119.095 200.194 118.07L200.064 117.631C197.669 109.527 196.161 102.025 195.368 95.2546L195.273 94.4079C194.846 90.5123 194.718 87.4266 194.761 85.2466L194.777 84.6942C194.784 84.5787 194.831 84.4703 194.91 84.3885L194.961 84.3422L201.79 79.0499Z" fill="#A3B5D6"/>
<path d="M225.967 80.1973C226.082 79.986 226.334 79.8966 226.553 79.9803L226.612 80.007L237.334 85.8479C237.461 85.9164 237.549 86.0388 237.575 86.1809L237.65 86.6407L237.729 87.1754C237.756 87.3682 237.785 87.5769 237.814 87.8008L237.844 88.0298C238.031 89.4898 238.218 91.2689 238.394 93.381L238.429 93.8079C239.704 109.557 239.704 132.796 237.582 164.651C237.564 164.913 237.337 165.111 237.076 165.094C236.813 165.076 236.615 164.85 236.632 164.588L236.757 162.689C238.751 131.852 238.726 109.271 237.481 93.8846L237.411 93.0455C237.258 91.2651 237.098 89.7346 236.937 88.4446L236.842 87.7101C236.814 87.4995 236.786 87.3048 236.76 87.1247L236.696 86.6953L236.676 86.5722L226.157 80.8429C225.945 80.7275 225.857 80.4751 225.94 80.2563L225.967 80.1973Z" fill="#A3B5D6"/>
<path d="M178.118 188.773L194.534 191.157C194.747 191.188 194.91 191.358 194.937 191.567L194.941 191.631L194.689 225.73C194.666 228.899 191.903 231.335 188.776 230.99L188.615 230.97L177.155 229.355C176.895 229.319 176.713 229.078 176.75 228.817C176.784 228.579 176.989 228.407 177.223 228.408L177.287 228.413L188.747 230.028C191.321 230.39 193.632 228.445 193.734 225.869L193.738 225.723L193.986 192.038L177.981 189.714C177.743 189.679 177.572 189.474 177.574 189.239L177.579 189.175C177.614 188.936 177.82 188.765 178.054 188.768L178.118 188.773Z" fill="#A3B5D6"/>
<path d="M262.14 185.786C262.386 185.693 262.661 185.817 262.754 186.063C262.839 186.288 262.742 186.538 262.535 186.649L262.477 186.676L250.722 191.118L251.039 227.159C251.048 228.035 251.928 228.622 252.739 228.313L252.825 228.276L262.932 223.859C263.172 223.754 263.453 223.863 263.558 224.104C263.654 224.324 263.57 224.579 263.37 224.701L263.312 224.73L253.216 229.143C251.801 229.802 250.182 228.816 250.092 227.281L250.088 227.167L249.768 190.794C249.766 190.617 249.863 190.456 250.015 190.373L250.075 190.345L262.14 185.786Z" fill="#A3B5D6"/>
<path fill-rule="evenodd" clip-rule="evenodd" d="M202.32 187.466L204.769 187.67C206.536 187.817 207.849 189.368 207.702 191.134L204.267 232.461C204.121 234.228 202.569 235.541 200.802 235.394L198.353 235.191C196.587 235.043 195.274 233.493 195.42 231.726L198.856 190.398C199.003 188.633 200.554 187.32 202.32 187.466Z" fill="#4E5C93"/>
<path fill-rule="evenodd" clip-rule="evenodd" d="M147.691 182.925L202.526 187.483C204.292 187.63 205.605 189.181 205.458 190.947L202.022 232.275C201.875 234.041 200.324 235.354 198.559 235.207L143.724 230.65C141.958 230.502 140.645 228.951 140.791 227.185L144.226 185.857C144.374 184.091 145.925 182.778 147.691 182.925Z" fill="#253368"/>
<path fill-rule="evenodd" clip-rule="evenodd" d="M161.562 157.937C154.613 155.63 150.849 148.125 153.157 141.175L166.376 101.366C168.682 94.4167 176.187 90.653 183.138 92.9611C190.087 95.2679 193.851 102.774 191.544 109.723L178.326 149.532C176.018 156.482 168.513 160.245 161.562 157.937Z" fill="#E4EBF7"/>
<path fill-rule="evenodd" clip-rule="evenodd" d="M156.695 222.788C156.695 222.788 154.577 207.295 159.954 203.564C164.824 200.187 168.568 204.919 168.568 204.919C168.568 204.919 173.202 208.72 176.338 214.597C178.406 218.47 181.591 226.232 179.704 227.593C177.243 229.368 174.15 220.372 172.053 221.061C169.901 221.768 170.403 223.674 170.116 228.383C169.938 231.326 170.987 233.111 170.361 235.577C169.135 240.397 158.904 236.766 156.695 222.788Z" fill="#FFC999"/>
<path d="M166.276 223.634C166.334 223.455 166.527 223.357 166.705 223.415C166.884 223.474 166.982 223.666 166.924 223.845L166.886 223.973C166.875 224.012 166.862 224.059 166.849 224.114C166.79 224.343 166.73 224.614 166.675 224.922C166.098 228.138 166.382 232.036 168.161 236.259C168.234 236.433 168.153 236.633 167.979 236.706C167.806 236.779 167.606 236.698 167.533 236.524C165.699 232.17 165.406 228.139 166.005 224.802C166.052 224.542 166.101 224.307 166.151 224.097L166.189 223.944C166.227 223.795 166.258 223.69 166.276 223.634Z" fill="#DD936F"/>
<path d="M162.635 222.572L162.69 222.574C162.877 222.595 163.011 222.763 162.99 222.951C162.683 225.667 163.008 228.419 163.737 231.015C163.925 231.685 164.127 232.291 164.328 232.823L164.451 233.139C164.512 233.291 164.56 233.403 164.593 233.474C164.671 233.645 164.595 233.847 164.424 233.925C164.253 234.003 164.051 233.928 163.973 233.757L163.894 233.574L163.797 233.337C163.763 233.252 163.727 233.161 163.691 233.064C163.483 232.515 163.275 231.889 163.082 231.2C162.33 228.525 161.995 225.688 162.314 222.874C162.333 222.706 162.471 222.58 162.635 222.572Z" fill="#DD936F"/>
<path d="M159.648 219.899C159.832 219.939 159.948 220.121 159.907 220.305L159.892 220.388C159.876 220.475 159.858 220.603 159.839 220.774C159.612 222.81 159.84 225.722 160.879 229.468C160.93 229.649 160.823 229.837 160.642 229.887C160.461 229.938 160.273 229.831 160.223 229.65C159.16 225.82 158.926 222.82 159.162 220.698L159.187 220.493C159.208 220.339 159.227 220.227 159.242 220.159C159.278 219.995 159.426 219.885 159.587 219.891L159.648 219.899Z" fill="#DD936F"/>
<path fill-rule="evenodd" clip-rule="evenodd" d="M178.405 207.226L155.698 207.78L152.288 145.98C152.109 138.658 157.899 132.579 165.221 132.401C172.541 132.222 178.622 138.012 178.799 145.333L178.405 207.226Z" fill="#E4EBF7"/>
<path d="M191.092 109.574C191.175 109.325 191.444 109.19 191.693 109.273C191.922 109.349 192.054 109.581 192.011 109.812L191.995 109.874L178.801 149.608L178.889 207.56C178.889 207.797 178.716 207.995 178.488 208.031L178.425 208.037L155.717 208.59C155.455 208.597 155.237 208.389 155.23 208.126C155.225 207.886 155.399 207.682 155.63 207.645L155.695 207.639L177.936 207.097L177.85 149.532C177.85 149.498 177.853 149.464 177.861 149.431L177.874 149.382L191.092 109.574Z" fill="#A3B5D6"/>
<path d="M176.414 197.237C176.677 197.231 176.895 197.439 176.901 197.701C176.907 197.942 176.732 198.145 176.502 198.182L176.437 198.188L157.155 198.658C156.893 198.665 156.674 198.457 156.667 198.194C156.662 197.954 156.836 197.75 157.067 197.713L157.132 197.707L176.414 197.237Z" fill="#A3B5D6"/>
</g>
<defs>
<clipPath id="clip0">
<rect width="448" height="410" fill="white"/>
</clipPath>
</defs>
</svg>
