<svg width="45" height="50" viewBox="0 0 45 50" fill="none" xmlns="http://www.w3.org/2000/svg">
<path fill-rule="evenodd" clip-rule="evenodd" d="M17.6188 0.712402C17.0074 0.712402 16.4293 0.990796 16.0482 1.46878L11.7724 6.83045H2.41072C1.30122 6.83045 0.401794 7.72988 0.401794 8.83934C0.401794 9.94883 1.30122 10.8483 2.41072 10.8483H3.61608V44.1965C3.61608 47.0812 5.95459 49.4197 8.83929 49.4197H36.1607C39.0454 49.4197 41.3839 47.0812 41.3839 44.1965V10.8483H42.5893C43.6988 10.8483 44.5982 9.94883 44.5982 8.83934C44.5982 7.72988 43.6988 6.83045 42.5893 6.83045H33.2276L28.9519 1.46878C28.5707 0.990796 27.9926 0.712402 27.3812 0.712402H17.6188ZM16.875 14.8661C17.9845 14.8661 18.8839 15.7656 18.8839 16.8751V39.3751C18.8839 40.4846 17.9845 41.384 16.875 41.384C15.7655 41.384 14.8661 40.4846 14.8661 39.3751V16.8751C14.8661 15.7656 15.7655 14.8661 16.875 14.8661ZM30.1339 16.8751C30.1339 15.7656 29.2345 14.8661 28.125 14.8661C27.0155 14.8661 26.1161 15.7656 26.1161 16.8751V39.3751C26.1161 40.4846 27.0155 41.384 28.125 41.384C29.2345 41.384 30.1339 40.4846 30.1339 39.3751V16.8751ZM28.0877 6.82933L26.4137 4.73026H18.5863L16.9123 6.82933H28.0877Z" fill="white"/>
</svg>
